<svg width="17" height="28" viewBox="0 0 17 28" fill="none" xmlns="http://www.w3.org/2000/svg">
<path fill-rule="evenodd" clip-rule="evenodd" d="M0.999954 1.00001C0.258364 1.67086 0.25844 1.67094 0.258547 1.67106L0.258923 1.67148L0.260247 1.67294L0.265178 1.67838L0.284057 1.69918L0.356991 1.77927C0.420903 1.8493 0.514952 1.95205 0.6364 2.08386C0.879277 2.34746 1.23184 2.72745 1.67217 3.19474C2.55254 4.12901 3.78522 5.41381 5.19466 6.81606C7.62373 9.23274 10.6242 12.0453 13.2633 14C10.6242 15.9547 7.62373 18.7673 5.19466 21.1839C3.78522 22.5862 2.55254 23.871 1.67217 24.8053C1.23184 25.2726 0.879277 25.6525 0.6364 25.9162C0.514952 26.048 0.420903 26.1507 0.356991 26.2207L0.284057 26.3008L0.265178 26.3216L0.260247 26.3271L0.258923 26.3285L0.258547 26.3289C0.25844 26.3291 0.258364 26.3292 0.999954 27L1.74155 27.6708L1.74175 27.6706L1.74273 27.6696L1.74695 27.6649L1.76439 27.6457L1.83432 27.5689C1.89619 27.5011 1.98808 27.4007 2.10726 27.2714C2.34563 27.0126 2.69307 26.6382 3.12774 26.1769C3.99737 25.254 5.21469 23.9852 6.60525 22.6018C9.40409 19.8172 12.843 16.6306 15.5527 14.8334L16.8091 14L15.5527 13.1666C12.843 11.3694 9.40409 8.1828 6.60525 5.39824C5.21469 4.01477 3.99737 2.746 3.12774 1.82313C2.69307 1.36185 2.34563 0.987371 2.10726 0.728655C1.98808 0.599307 1.89619 0.498922 1.83432 0.431125L1.76439 0.354331L1.74695 0.33512L1.74273 0.330459L1.74175 0.329384L1.74155 0.329163L0.999954 1.00001Z" fill="#292D33"/>
</svg>
